<?xml version="1.0" standalone="no"?>
<!DOCTYPE svg PUBLIC "-//W3C//DTD SVG 20010904//EN"
 "http://www.w3.org/TR/2001/REC-SVG-20010904/DTD/svg10.dtd">
<svg version="1.0" xmlns="http://www.w3.org/2000/svg"
 width="442.000000pt" height="487.000000pt" viewBox="0 0 442.000000 487.000000"
 preserveAspectRatio="xMidYMid meet">

<g transform="translate(0.000000,487.000000) scale(0.100000,-0.100000)"
fill="#000000" stroke="none">
<path d="M130 4578 l0 -112 49 -51 c46 -46 190 -299 668 -1165 17 -30 90 -162
163 -293 l133 -238 -24 -32 c-46 -62 -109 -161 -109 -172 0 -6 102 -93 228
-193 161 -129 234 -194 250 -223 13 -22 22 -42 20 -44 -2 -2 -120 91 -263 205
l-260 208 -18 -34 c-23 -45 -73 -198 -81 -249 l-6 -40 296 -235 c163 -129 300
-241 306 -247 7 -9 7 -17 -2 -28 -10 -12 -60 25 -310 225 l-299 239 -7 -46
c-8 -55 1 -307 13 -345 6 -19 184 -167 628 -523 l620 -497 79 6 c72 5 196 24
205 32 3 3 -169 318 -287 524 -53 93 -54 96 -38 123 8 15 13 34 9 43 -4 12
-12 7 -35 -21 -33 -39 -132 -93 -217 -119 -50 -15 -56 -15 -73 1 -21 19 -23
46 -5 60 6 6 37 18 67 28 117 38 199 99 233 172 9 21 16 24 44 20 48 -8 41 7
-22 49 -31 20 -66 51 -79 68 -26 34 -76 130 -76 145 0 5 15 11 33 13 44 4 41
21 -6 29 -21 3 -43 11 -50 18 -20 20 -27 12 -27 -28 0 -45 -22 -111 -50 -150
-23 -33 -69 -46 -105 -29 -22 10 -25 17 -25 69 0 48 3 59 20 64 31 10 60 -12
60 -45 0 -17 5 -30 10 -30 14 0 12 64 -2 78 -7 7 -30 12 -51 12 l-40 0 6 54
c3 30 11 64 17 76 14 27 118 75 203 95 93 22 137 5 297 -116 68 -52 82 -67 97
-110 10 -27 21 -49 25 -49 5 0 8 20 8 44 l0 45 52 14 c29 9 190 53 358 99 309
84 328 93 203 97 -24 0 -43 3 -43 6 0 3 16 29 35 57 19 29 33 54 31 55 -2 2
-41 -3 -87 -13 -135 -27 -270 -4 -337 59 -13 12 -41 56 -62 98 -21 42 -50 83
-63 92 -37 24 -105 39 -164 35 l-52 -3 264 -210 c145 -115 264 -213 265 -216
0 -4 -10 -9 -22 -12 -17 -5 -75 37 -287 206 -146 117 -272 216 -279 221 -18
11 -101 -19 -225 -81 l-108 -54 163 -130 c90 -72 166 -134 170 -138 4 -3 -29
11 -75 33 -45 21 -125 73 -177 114 -52 41 -101 80 -107 85 -9 6 -35 -4 -83
-32 -38 -23 -70 -44 -70 -48 0 -3 20 -41 45 -86 35 -61 43 -82 33 -89 -7 -4
-16 -8 -19 -8 -6 0 -119 202 -119 212 0 7 206 122 328 183 154 77 216 97 318
102 155 9 238 -34 295 -151 35 -72 52 -92 104 -120 34 -18 56 -21 150 -21 90
1 128 6 210 29 269 76 276 78 420 83 107 4 156 1 208 -11 152 -36 283 -130
394 -283 24 -35 48 -63 53 -63 11 0 59 62 98 126 127 206 148 519 56 824 -43
140 -113 274 -261 495 -199 297 -243 391 -243 517 0 53 6 80 24 116 39 75 87
113 258 202 l109 57 -38 33 c-121 107 -314 179 -534 200 -138 13 -232 1 -485
-62 -197 -49 -216 -52 -339 -53 -174 0 -187 7 -314 165 -67 84 -208 118 -367
91 -96 -17 -263 -73 -396 -132 -329 -146 -461 -156 -559 -39 -103 122 -258
110 -563 -42 -131 -65 -141 -69 -153 -52 -7 10 -13 34 -13 53 0 98 -4 104
-109 165 -54 31 -101 56 -104 56 -4 0 -7 -50 -7 -112z m2156 -713 l169 -254
285 -3 284 -3 -172 -158 c-95 -87 -172 -162 -172 -166 0 -3 74 -119 164 -256
90 -138 162 -251 161 -252 -1 -2 -125 67 -276 152 -151 85 -277 154 -281 152
-4 -1 -78 -65 -164 -142 -87 -77 -166 -146 -177 -154 -19 -14 -20 -10 -16 245
l4 259 -263 151 c-145 83 -269 157 -275 163 -8 8 60 11 265 11 l275 0 6 68 c4
37 7 151 7 255 0 103 2 187 3 187 2 0 80 -115 173 -255z m-628 -2112 l3 -73
-59 0 c-61 0 -80 11 -96 54 -15 42 56 98 119 93 l30 -2 3 -72z m259 -65 c19
-27 20 -33 7 -52 -38 -60 -125 -90 -296 -102 l-88 -7 -15 38 c-15 34 -15 39 2
57 15 17 27 19 98 15 44 -3 94 -8 111 -12 47 -10 117 23 133 64 8 17 16 31 20
31 3 0 16 -14 28 -32z m97 -83 c25 -38 20 -57 -26 -102 -52 -50 -81 -65 -181
-92 -105 -30 -145 -26 -174 18 -32 47 -23 53 116 80 119 23 156 39 205 90 36
37 39 38 60 6z m-61 -350 c1 -6 -14 -11 -33 -13 l-35 -2 25 15 c27 15 40 15
43 0z"/>
<path d="M778 3153 c-157 -166 -313 -428 -388 -651 -66 -198 -91 -357 -91
-582 0 -255 37 -444 134 -679 196 -481 599 -856 1096 -1021 214 -71 304 -85
566 -85 201 0 244 3 340 23 562 117 1026 472 1271 972 43 88 104 238 104 256
0 3 -11 4 -25 2 -22 -3 -31 -17 -68 -108 -196 -487 -616 -875 -1107 -1024
-199 -60 -278 -70 -515 -70 -200 0 -231 2 -346 27 -69 14 -166 40 -215 57
-130 45 -335 150 -444 227 -123 87 -336 301 -422 423 -134 190 -238 430 -290
670 -20 92 -22 134 -22 335 0 202 2 243 22 335 70 321 215 611 418 831 47 51
53 62 44 79 -15 27 -21 26 -62 -17z"/>
<path d="M755 2913 c-37 -55 -33 -88 15 -134 70 -66 133 -61 178 14 17 28 17
28 -18 57 -19 16 -35 35 -35 42 0 7 -9 13 -20 13 -11 0 -34 10 -52 23 -17 12
-34 22 -37 22 -3 0 -17 -17 -31 -37z m82 -39 c3 -8 0 -21 -6 -28 -9 -11 -9
-16 0 -22 7 -4 18 1 25 11 12 17 15 17 39 1 31 -20 31 -27 1 -55 -29 -28 -62
-21 -105 21 -35 34 -38 48 -15 83 13 20 20 23 36 14 10 -6 22 -17 25 -25z"/>
<path d="M641 2734 c-25 -32 -26 -55 -6 -94 49 -95 205 -92 205 4 0 92 -146
157 -199 90z m126 -24 c35 -21 52 -63 36 -89 -6 -9 -26 -17 -46 -19 -28 -2
-43 3 -71 28 -39 35 -45 60 -20 84 21 22 62 20 101 -4z"/>
<path d="M1015 2684 c-154 -215 -238 -484 -237 -759 0 -359 132 -678 386 -930
259 -257 568 -385 931 -385 225 0 394 40 592 140 142 71 229 135 343 249 94
94 160 181 221 292 35 65 38 74 25 88 -19 18 -15 22 -59 -64 -111 -213 -321
-416 -551 -532 -182 -91 -359 -133 -571 -133 -350 0 -652 125 -901 374 -250
250 -375 551 -375 906 0 262 72 499 217 712 48 70 54 83 41 95 -12 13 -21 6
-62 -53z"/>
<path d="M580 2608 c0 -7 11 -21 25 -33 23 -19 23 -22 10 -53 -13 -30 -17 -33
-48 -27 -26 5 -36 3 -40 -9 -8 -20 8 -23 135 -30 130 -7 132 3 23 94 -83 69
-105 81 -105 58z m115 -104 l30 -26 -40 7 c-48 8 -47 8 -39 29 8 21 13 20 49
-10z"/>
<path d="M790 2460 c-13 -8 -12 -10 3 -10 9 0 17 5 17 10 0 12 -1 12 -20 0z"/>
<path d="M512 2433 c2 -10 26 -22 66 -33 34 -10 65 -20 68 -22 3 -3 -32 -14
-78 -24 -118 -27 -116 -43 12 -79 75 -21 103 -26 112 -17 13 13 16 12 -82 40
l-65 18 75 18 c110 26 110 26 110 41 0 8 -30 21 -77 34 -43 11 -93 25 -111 30
-28 9 -33 8 -30 -6z"/>
<path d="M3480 2280 c-14 -5 -45 -14 -70 -21 l-45 -11 40 -16 c143 -56 283
-199 364 -372 55 -118 61 -151 45 -247 -8 -44 -20 -101 -28 -127 -16 -51 -17
-51 54 -34 59 14 73 30 102 116 24 73 58 269 58 336 0 57 -26 107 -102 198
-91 109 -328 210 -418 178z"/>
<path d="M3137 2235 c-57 -16 -48 -8 -85 -72 l-30 -51 36 -7 c71 -13 199 -81
252 -134 59 -59 110 -159 139 -273 26 -100 18 -127 -61 -212 l-61 -67 25 -26
c25 -24 26 -24 57 -9 40 21 96 78 132 134 23 37 29 57 29 103 0 38 5 61 15 69
9 7 17 11 19 9 2 -2 6 -45 10 -94 l6 -91 -50 -72 -51 -72 63 0 c35 0 72 3 83
6 29 7 75 120 93 227 14 87 14 88 -12 161 -42 113 -111 223 -190 302 -57 56
-93 81 -179 123 -118 59 -165 68 -240 46z"/>
<path d="M640 2164 l0 -26 -62 8 c-91 12 -131 11 -135 -3 -3 -8 4 -13 16 -13
11 0 54 -5 96 -11 73 -11 75 -12 75 -39 0 -15 6 -30 14 -33 10 -4 16 8 21 51
3 31 8 65 11 75 4 12 0 17 -15 17 -16 0 -21 -6 -21 -26z"/>
<path d="M430 2025 c0 -12 13 -15 55 -15 50 0 55 -2 55 -22 0 -58 -9 -68 -61
-68 -37 0 -49 -4 -49 -15 0 -12 20 -15 116 -15 88 0 115 3 112 13 -3 6 -23 13
-46 15 l-42 3 0 45 0 45 45 -7 c36 -5 45 -3 45 9 0 18 -48 27 -152 27 -63 0
-78 -3 -78 -15z"/>
<path d="M432 1854 c2 -10 17 -21 36 -26 28 -8 32 -12 32 -44 0 -30 -4 -37
-30 -45 -19 -7 -30 -18 -30 -30 0 -18 2 -19 38 -3 20 8 70 29 110 46 98 41 94
55 -23 84 -50 13 -100 26 -113 29 -19 5 -23 2 -20 -11z m148 -50 l32 -7 -23
-13 c-36 -20 -59 -17 -59 6 0 22 3 23 50 14z"/>
<path d="M605 1699 c-134 -25 -155 -31 -155 -45 0 -8 1 -14 3 -14 1 0 36 6 77
14 41 8 76 14 77 12 1 -1 -29 -26 -67 -56 -69 -54 -86 -80 -52 -80 36 0 212
34 212 41 0 17 -22 19 -81 9 -34 -6 -63 -9 -65 -7 -3 3 24 28 60 56 43 34 63
57 59 66 -3 8 -8 14 -12 14 -3 -1 -28 -5 -56 -10z"/>
<path d="M906 1583 c11 -48 50 -145 84 -213 176 -352 513 -599 906 -665 189
-31 214 -58 -403 435 -306 245 -565 451 -575 458 -17 13 -18 12 -12 -15z"/>
<path d="M592 1516 c-52 -17 -93 -36 -92 -41 1 -11 19 -11 66 0 30 7 32 5 44
-30 7 -20 10 -38 8 -41 -3 -2 -22 -10 -43 -17 -41 -15 -59 -37 -28 -37 35 0
204 62 200 73 -4 13 -13 13 -63 2 -28 -6 -32 -4 -38 18 -3 14 -8 32 -11 39 -4
10 6 18 35 27 23 7 40 18 40 26 0 20 -10 18 -118 -19z"/>
<path d="M3160 1483 c-58 -8 -274 -33 -480 -56 l-375 -42 -61 -38 c-34 -20
-66 -37 -72 -37 -28 0 -17 -30 55 -161 l78 -141 120 -97 c168 -137 149 -129
225 -91 77 39 210 127 210 139 0 5 -100 89 -222 186 -277 220 -256 201 -222
208 23 4 58 -20 257 -180 l230 -184 64 63 c60 59 143 158 143 171 0 3 -45 41
-100 85 -54 44 -96 82 -93 86 18 18 56 -1 135 -64 l87 -70 35 63 c19 34 38 70
42 80 3 10 23 26 43 36 20 11 45 28 55 40 19 21 19 21 -15 20 -19 -1 -81 -8
-139 -16z"/>
<path d="M680 1300 c-55 -27 -96 -55 -98 -64 -3 -14 11 -10 67 19 39 19 71 33
71 30 0 -3 -21 -37 -47 -75 -64 -97 -52 -104 68 -45 110 55 106 52 92 66 -7 7
-29 1 -71 -20 -34 -17 -64 -31 -68 -31 -3 0 14 28 38 63 58 81 58 81 50 94 -5
8 -38 -4 -102 -37z"/>
<path d="M3386 1295 c-3 -10 8 -22 34 -35 l40 -20 -20 -40 -20 -39 -36 21
c-26 15 -38 18 -46 10 -15 -15 -21 -10 94 -69 71 -36 99 -46 102 -36 3 8 -11
21 -37 34 -23 12 -43 23 -45 24 -6 5 32 75 40 75 5 0 26 -9 48 -20 47 -24 50
-24 50 -5 0 9 -40 35 -99 65 -79 39 -100 46 -105 35z"/>
<path d="M764 1134 c-106 -67 -100 -62 -87 -75 7 -7 39 8 101 47 51 32 92 61
92 65 0 22 -25 13 -106 -37z"/>
<path d="M3306 1151 c-4 -5 21 -29 55 -51 33 -23 58 -44 56 -46 -2 -3 -40 0
-83 5 -121 15 -124 1 -12 -77 68 -49 93 -61 102 -52 8 8 7 13 -4 20 -8 5 -37
25 -65 45 l-50 36 70 -7 c107 -10 118 -10 122 2 2 7 -32 37 -77 68 -91 64
-105 71 -114 57z"/>
<path d="M795 1070 c-44 -32 -79 -64 -77 -71 6 -24 66 -99 79 -99 19 0 16 10
-13 53 -28 41 -27 60 5 77 18 9 24 5 47 -29 16 -25 31 -38 40 -34 19 7 18 9
-11 47 -31 40 -31 47 -3 65 20 12 24 11 38 -10 33 -51 48 -64 59 -54 13 13
-52 115 -72 114 -6 0 -48 -27 -92 -59z"/>
<path d="M941 1103 c11 -3 15 -11 12 -26 -4 -18 -3 -19 6 -7 17 24 13 40 -11
39 -16 -1 -18 -3 -7 -6z"/>
<path d="M3206 1013 c-3 -3 -6 -10 -6 -14 0 -15 170 -140 180 -134 15 9 3 23
-89 94 -43 33 -81 57 -85 54z"/>
<path d="M900 938 c-47 -38 -87 -72 -89 -74 -2 -2 3 -6 12 -10 11 -4 35 10 72
41 30 26 55 45 55 41 0 -3 -14 -40 -30 -81 -28 -71 -31 -95 -10 -95 6 0 126
95 162 129 4 3 3 12 -1 20 -7 10 -19 4 -52 -25 -87 -75 -83 -75 -54 1 34 86
39 111 28 118 -5 3 -47 -26 -93 -65z"/>
<path d="M3155 960 c-4 -6 12 -42 34 -80 23 -38 41 -71 41 -74 0 -3 -33 11
-74 31 -63 31 -77 35 -90 24 -14 -12 -6 -23 66 -91 52 -49 87 -75 93 -69 6 6
-11 30 -45 66 l-55 56 67 -36 c36 -21 71 -37 77 -37 18 0 13 28 -12 68 -51 80
-50 88 5 34 39 -38 57 -49 65 -41 8 8 -9 30 -64 82 -78 74 -96 86 -108 67z"/>
<path d="M2370 896 c0 -3 78 -145 84 -153 4 -5 76 21 75 26 0 7 -159 134 -159
127z"/>
<path d="M2960 830 c0 -11 5 -20 10 -20 6 0 10 9 10 20 0 11 -4 20 -10 20 -5
0 -10 -9 -10 -20z"/>
<path d="M1092 810 c-71 -44 -96 -140 -46 -179 15 -12 33 -21 40 -21 24 0 64
23 64 37 0 16 -14 17 -41 3 -13 -8 -25 -7 -39 0 -43 23 -10 115 49 140 28 11
34 10 52 -6 13 -12 18 -26 15 -40 -7 -26 12 -43 25 -23 42 66 -48 133 -119 89z"/>
<path d="M2976 791 c-6 -8 112 -162 133 -175 5 -4 13 -2 16 4 6 10 -123 180
-137 180 -4 0 -9 -4 -12 -9z"/>
<path d="M2930 749 c0 -6 10 -25 22 -41 l22 -31 -30 -23 c-16 -13 -32 -24 -36
-24 -4 0 -18 16 -30 35 -24 36 -33 42 -42 26 -8 -13 106 -190 122 -191 18 0
15 16 -13 60 l-25 40 32 20 c18 11 36 20 39 20 4 0 19 -19 34 -41 19 -29 30
-38 37 -31 8 8 -6 37 -48 101 -53 81 -84 111 -84 80z"/>
<path d="M1320 740 c-12 -8 -11 -10 8 -10 13 0 22 -6 22 -15 0 -12 -4 -13 -19
-5 -71 37 -161 -32 -161 -123 0 -71 70 -105 133 -65 37 25 70 100 61 140 -4
18 -8 44 -8 57 -1 28 -14 35 -36 21z m6 -75 c15 -23 15 -27 -3 -62 -10 -20
-30 -46 -45 -56 -25 -19 -28 -19 -52 -3 -30 19 -34 52 -11 96 28 54 84 67 111
25z"/>
<path d="M1359 564 c-24 -53 -45 -101 -47 -105 -2 -5 3 -9 12 -9 10 0 29 26
48 68 l33 67 2 -60 c4 -88 12 -125 27 -125 19 0 107 193 92 202 -7 5 -24 -19
-48 -65 l-37 -72 -1 55 c-2 74 -13 133 -26 137 -6 2 -31 -40 -55 -93z"/>
<path d="M2721 624 c-36 -46 -20 -118 38 -167 39 -32 69 -34 105 -6 30 24 38
89 11 89 -9 0 -15 -9 -15 -24 0 -27 -23 -56 -44 -56 -47 0 -100 96 -77 139 13
23 50 28 69 9 9 -9 15 -9 25 1 10 10 8 15 -7 27 -33 23 -82 18 -105 -12z"/>
<path d="M2540 620 c20 -13 33 -13 25 0 -3 6 -14 10 -23 10 -15 0 -15 -2 -2
-10z"/>
<path d="M2512 577 c1 -12 -5 -33 -15 -47 -22 -32 -21 -75 2 -127 26 -56 72
-77 126 -57 20 8 45 56 45 86 -1 46 -38 108 -73 123 -18 8 -39 21 -47 29 -19
24 -42 20 -38 -7z m38 -8 c0 -5 -7 -9 -15 -9 -8 0 -15 7 -15 15 0 9 6 12 15 9
8 -4 15 -10 15 -15z m59 -64 c44 -57 31 -135 -24 -135 -46 0 -90 93 -66 139
17 30 64 28 90 -4z"/>
<path d="M1555 537 c-76 -76 -50 -197 43 -197 20 0 42 4 47 8 11 8 35 57 35
72 0 12 -61 39 -72 33 -16 -8 -7 -31 13 -36 36 -10 20 -42 -21 -42 -49 0 -69
36 -52 94 16 52 49 76 85 62 15 -6 29 -21 33 -36 3 -14 12 -25 20 -25 31 0 5
72 -33 89 -40 18 -63 13 -98 -22z"/>
<path d="M1985 550 c-3 -5 0 -7 8 -4 18 6 32 -12 17 -21 -5 -3 -10 -11 -10
-17 0 -7 6 -6 15 2 22 18 19 50 -4 50 -11 0 -23 -4 -26 -10z"/>
<path d="M2425 521 c-3 -6 -3 -27 1 -49 6 -39 6 -39 -30 -46 -42 -8 -56 -2
-56 24 0 29 -11 50 -27 50 -9 0 -12 -6 -9 -17 3 -10 12 -60 21 -110 13 -68 21
-93 32 -93 12 0 13 10 8 54 l-7 53 32 7 c49 9 49 9 56 -33 8 -48 20 -69 32
-56 10 11 -27 225 -39 225 -4 0 -10 -4 -14 -9z"/>
<path d="M1786 491 c-29 -32 -17 -71 32 -104 45 -30 55 -62 22 -72 -24 -7 -60
10 -60 30 0 19 -19 30 -32 17 -6 -6 -4 -20 6 -40 28 -55 118 -53 132 2 10 40
1 59 -41 87 -48 32 -53 62 -13 67 22 3 30 -2 38 -22 9 -25 21 -32 33 -20 8 8
-11 57 -26 66 -23 15 -74 8 -91 -11z"/>
<path d="M1175 491 c-6 -11 9 -23 19 -14 9 9 7 23 -3 23 -6 0 -12 -4 -16 -9z"/>
<path d="M1942 388 c-47 -115 -48 -118 -28 -118 8 0 19 14 25 31 9 27 14 30
48 27 33 -3 39 -7 43 -33 3 -19 12 -31 24 -33 13 -3 17 1 14 9 -3 8 -15 60
-28 117 -18 78 -27 102 -40 102 -11 0 -29 -31 -58 -102z m67 -5 c1 -17 -5 -23
-19 -23 -23 0 -24 5 -8 50 10 30 12 32 19 14 4 -10 8 -29 8 -41z"/>
<path d="M2090 375 c0 -94 3 -115 15 -115 11 0 15 17 17 76 l3 75 45 -75 c24
-42 50 -76 57 -76 10 0 13 24 13 93 0 50 -3 102 -6 115 -12 44 -23 21 -26 -55
l-3 -78 -45 77 c-25 43 -51 78 -57 78 -10 0 -13 -30 -13 -115z"/>
</g>
</svg>
